<svg width="160" height="160" viewBox="0 0 160 160" fill="none" xmlns="http://www.w3.org/2000/svg">
<rect width="160" height="160" fill="#E5E5E5"/>
<rect width="1440" height="3131" transform="translate(-540 -820)" fill="white"/>
<rect width="160" height="160" fill="#FFE17F"/>
<path d="M97.349 38.49C97.349 37.754 96.771 37 96.038 37H53.053C52.32 37 51.672 37.754 51.672 38.49V42.012H97.348L97.349 38.49Z" fill="#363636"/>
<path d="M98.202 118.809H88.605V108.426H81.647V110.933H62.774C62.237 109.679 61.017 108.785 59.593 108.785H47.559C45.642 108.784 44 110.387 44 112.311V115.329C44 117.253 45.642 118.809 47.559 118.809H59.594C61.105 118.809 62.386 117.913 62.863 116.483H81.648V118.809H72.13C71.597 118.809 71.12 119.246 71.12 119.781V122.953C71.12 123.488 71.598 124.001 72.13 124.001H98.202C98.735 124.001 99.132 123.488 99.132 122.953V119.78C99.132 119.245 98.735 118.809 98.202 118.809Z" fill="#363636"/>
<path d="M104.666 49.39C103.805 46.453 101.099 44.34 97.895 44.34H51.148C47.25 44.34 44 47.449 44 51.361V98.261C44 102.173 47.25 105.382 51.148 105.382H97.895C101.793 105.382 105.021 102.173 105.021 98.261V87.915C111.087 83.711 115.022 76.704 115.022 68.751C115.021 60.672 110.89 53.57 104.666 49.39ZM56.238 99.151C52.979 99.151 50.337 96.501 50.337 93.23C50.337 89.96 52.979 87.308 56.238 87.308C59.497 87.308 62.14 89.96 62.14 93.23C62.14 96.501 59.497 99.151 56.238 99.151ZM62.199 66.546C62.199 67.332 61.564 67.968 60.781 67.968H51.841C51.058 67.968 50.423 67.331 50.423 66.546V52.386C50.423 51.6 51.058 50.963 51.841 50.963H60.78C61.563 50.963 62.198 51.6 62.198 52.386L62.199 66.546ZM91.762 88.858C80.686 88.858 71.705 79.848 71.705 68.735C71.705 57.622 80.685 48.611 91.762 48.611C102.839 48.611 111.82 57.621 111.82 68.735C111.82 79.849 102.839 88.858 91.762 88.858Z" fill="#363636"/>
<path d="M91.762 80.964C98.4932 80.964 103.95 75.4889 103.95 68.735C103.95 61.9811 98.4932 56.506 91.762 56.506C85.0308 56.506 79.574 61.9811 79.574 68.735C79.574 75.4889 85.0308 80.964 91.762 80.964Z" fill="#363636"/>
<path d="M75.562 70.171C76.3545 70.171 76.997 69.5285 76.997 68.736C76.997 67.9435 76.3545 67.301 75.562 67.301C74.7695 67.301 74.127 67.9435 74.127 68.736C74.127 69.5285 74.7695 70.171 75.562 70.171Z" fill="#363636"/>
<path d="M107.963 70.171C108.756 70.171 109.398 69.5285 109.398 68.736C109.398 67.9435 108.756 67.301 107.963 67.301C107.17 67.301 106.528 67.9435 106.528 68.736C106.528 69.5285 107.17 70.171 107.963 70.171Z" fill="#363636"/>
<path d="M83.109 56.429C83.9015 56.429 84.544 55.7865 84.544 54.994C84.544 54.2015 83.9015 53.559 83.109 53.559C82.3165 53.559 81.674 54.2015 81.674 54.994C81.674 55.7865 82.3165 56.429 83.109 56.429Z" fill="#363636"/>
<path d="M100.415 83.912C101.205 83.912 101.845 83.2691 101.845 82.476C101.845 81.6829 101.205 81.04 100.415 81.04C99.6252 81.04 98.985 81.6829 98.985 82.476C98.985 83.2691 99.6252 83.912 100.415 83.912Z" fill="#363636"/>
<path d="M99.697 56C100.49 56 101.132 55.3575 101.132 54.565C101.132 53.7725 100.49 53.13 99.697 53.13C98.9045 53.13 98.262 53.7725 98.262 54.565C98.262 55.3575 98.9045 56 99.697 56Z" fill="#363636"/>
<path d="M83.828 84.341C84.6205 84.341 85.263 83.6985 85.263 82.906C85.263 82.1135 84.6205 81.471 83.828 81.471C83.0355 81.471 82.393 82.1135 82.393 82.906C82.393 83.6985 83.0355 84.341 83.828 84.341Z" fill="#363636"/>
</svg>
