<svg width="160" height="160" viewBox="0 0 160 160" fill="none" xmlns="http://www.w3.org/2000/svg">
<rect width="160" height="160" fill="#E5E5E5"/>
<rect width="1440" height="3131" transform="translate(-740 -820)" fill="white"/>
<rect width="160" height="160" fill="#FFE17F"/>
<path d="M124.967 52.0741C125.719 53.5151 126.176 55.1541 126.176 56.8921V77.9941C126.176 82.6101 123.084 86.5211 118.93 87.8941C117.605 91.8811 115.152 95.7481 110.879 98.3261C102.203 103.557 79.755 103.163 79.681 103.163C79.603 103.163 57.168 103.558 48.492 98.3261C44.276 95.7811 41.784 91.9791 40.45 88.0471C36.032 86.8381 32.694 82.7961 32.694 77.9941V56.8931C32.694 55.2051 33.121 53.6111 33.833 52.2001C30.17 53.1091 26 54.9181 26 58.4341C26 64.6771 26 84.1211 26 88.4171C26 98.6681 37.839 112.85 79.657 112.85C121.477 112.85 133.314 98.6681 133.314 88.4171C133.314 84.1211 133.314 64.6771 133.314 58.4341C133.313 54.7501 128.738 52.9401 124.967 52.0741Z" fill="#363636"/>
<path d="M46.561 86.4591H112.084C117.648 86.4591 122.158 81.9461 122.158 76.3821V57.9351C122.158 52.3721 117.648 47.8601 112.084 47.8601H46.561C40.997 47.8601 36.486 52.3711 36.486 57.9351V76.3821C36.486 81.9461 40.997 86.4591 46.561 86.4591ZM109.695 57.4681C110.562 57.4681 111.264 58.1711 111.264 59.0381C111.264 59.9041 110.562 60.6071 109.695 60.6071C108.828 60.6071 108.127 59.9041 108.127 59.0381C108.127 58.1701 108.828 57.4681 109.695 57.4681ZM109.695 61.5071C110.562 61.5071 111.264 62.2101 111.264 63.0751C111.264 63.9421 110.562 64.6441 109.695 64.6441C108.828 64.6441 108.127 63.9421 108.127 63.0751C108.127 62.2101 108.828 61.5071 109.695 61.5071ZM109.695 65.5461C110.562 65.5461 111.264 66.2481 111.264 67.1151C111.264 67.9811 110.562 68.6841 109.695 68.6841C108.828 68.6841 108.127 67.9811 108.127 67.1151C108.127 66.2481 108.828 65.5461 109.695 65.5461ZM109.695 69.3731C110.562 69.3731 111.264 70.0771 111.264 70.9421C111.264 71.8091 110.562 72.5101 109.695 72.5101C108.828 72.5101 108.127 71.8091 108.127 70.9421C108.127 70.0761 108.828 69.3731 109.695 69.3731ZM109.695 73.4121C110.562 73.4121 111.264 74.1141 111.264 74.9811C111.264 75.8461 110.562 76.5491 109.695 76.5491C108.828 76.5491 108.127 75.8451 108.127 74.9811C108.127 74.1141 108.828 73.4121 109.695 73.4121ZM105.656 57.4681C106.523 57.4681 107.224 58.1711 107.224 59.0381C107.224 59.9041 106.523 60.6071 105.656 60.6071C104.791 60.6071 104.088 59.9041 104.088 59.0381C104.088 58.1701 104.791 57.4681 105.656 57.4681ZM105.656 73.4121C106.523 73.4121 107.224 74.1141 107.224 74.9811C107.224 75.8461 106.523 76.5491 105.656 76.5491C104.791 76.5491 104.088 75.8451 104.088 74.9811C104.088 74.1141 104.791 73.4121 105.656 73.4121ZM101.619 57.4681C102.484 57.4681 103.187 58.1711 103.187 59.0381C103.187 59.9041 102.484 60.6071 101.619 60.6071C100.752 60.6071 100.05 59.9041 100.05 59.0381C100.05 58.1701 100.752 57.4681 101.619 57.4681ZM101.619 61.5071C102.484 61.5071 103.187 62.2101 103.187 63.0751C103.187 63.9421 102.484 64.6441 101.619 64.6441C100.752 64.6441 100.05 63.9421 100.05 63.0751C100.05 62.2101 100.752 61.5071 101.619 61.5071ZM101.619 65.5461C102.484 65.5461 103.187 66.2481 103.187 67.1151C103.187 67.9811 102.484 68.6841 101.619 68.6841C100.752 68.6841 100.05 67.9811 100.05 67.1151C100.05 66.2481 100.752 65.5461 101.619 65.5461ZM101.619 69.3731C102.484 69.3731 103.187 70.0771 103.187 70.9421C103.187 71.8091 102.484 72.5101 101.619 72.5101C100.752 72.5101 100.05 71.8091 100.05 70.9421C100.05 70.0761 100.752 69.3731 101.619 69.3731ZM101.619 73.4121C102.484 73.4121 103.187 74.1141 103.187 74.9811C103.187 75.8461 102.484 76.5491 101.619 76.5491C100.752 76.5491 100.05 75.8451 100.05 74.9811C100.05 74.1141 100.752 73.4121 101.619 73.4121ZM93.965 57.4681C94.832 57.4681 95.533 58.1711 95.533 59.0381C95.533 59.9041 94.832 60.6071 93.965 60.6071C93.098 60.6071 92.397 59.9041 92.397 59.0381C92.396 58.1701 93.1 57.4681 93.965 57.4681ZM93.965 65.5461C94.832 65.5461 95.533 66.2481 95.533 67.1151C95.533 67.9811 94.832 68.6841 93.965 68.6841C93.098 68.6841 92.397 67.9811 92.397 67.1151C92.396 66.2481 93.1 65.5461 93.965 65.5461ZM93.965 69.4271C94.832 69.4271 95.533 70.1281 95.533 70.9951C95.533 71.8601 94.832 72.5641 93.965 72.5641C93.098 72.5641 92.397 71.8601 92.397 70.9951C92.396 70.1281 93.1 69.4271 93.965 69.4271ZM93.965 73.4121C94.832 73.4121 95.533 74.1141 95.533 74.9811C95.533 75.8461 94.832 76.5491 93.965 76.5491C93.098 76.5491 92.397 75.8451 92.397 74.9811C92.396 74.1141 93.1 73.4121 93.965 73.4121ZM89.926 57.4681C90.793 57.4681 91.496 58.1711 91.496 59.0381C91.496 59.9041 90.793 60.6071 89.926 60.6071C89.061 60.6071 88.357 59.9041 88.357 59.0381C88.356 58.1701 89.061 57.4681 89.926 57.4681ZM89.926 65.5461C90.793 65.5461 91.496 66.2481 91.496 67.1151C91.496 67.9811 90.793 68.6841 89.926 68.6841C89.061 68.6841 88.357 67.9811 88.357 67.1151C88.356 66.2481 89.061 65.5461 89.926 65.5461ZM89.926 73.4121C90.793 73.4121 91.496 74.1141 91.496 74.9811C91.496 75.8461 90.793 76.5491 89.926 76.5491C89.061 76.5491 88.357 75.8451 88.357 74.9811C88.356 74.1141 89.061 73.4121 89.926 73.4121ZM85.888 57.4681C86.753 57.4681 87.457 58.1711 87.457 59.0381C87.457 59.9041 86.753 60.6071 85.888 60.6071C85.021 60.6071 84.32 59.9041 84.32 59.0381C84.319 58.1701 85.021 57.4681 85.888 57.4681ZM85.888 61.5071C86.753 61.5071 87.457 62.2101 87.457 63.0751C87.457 63.9421 86.753 64.6441 85.888 64.6441C85.021 64.6441 84.32 63.9421 84.32 63.0751C84.319 62.2101 85.021 61.5071 85.888 61.5071ZM85.888 65.5461C86.753 65.5461 87.457 66.2481 87.457 67.1151C87.457 67.9811 86.753 68.6841 85.888 68.6841C85.021 68.6841 84.32 67.9811 84.32 67.1151C84.319 66.2481 85.021 65.5461 85.888 65.5461ZM85.888 73.4121C86.753 73.4121 87.457 74.1141 87.457 74.9811C87.457 75.8461 86.753 76.5491 85.888 76.5491C85.021 76.5491 84.32 75.8451 84.32 74.9811C84.319 74.1141 85.021 73.4121 85.888 73.4121ZM77.598 57.4681C78.465 57.4681 79.167 58.1711 79.167 59.0381C79.167 59.9041 78.465 60.6071 77.598 60.6071C76.731 60.6071 76.03 59.9041 76.03 59.0381C76.029 58.1701 76.731 57.4681 77.598 57.4681ZM77.598 61.5071C78.465 61.5071 79.167 62.2101 79.167 63.0751C79.167 63.9421 78.465 64.6441 77.598 64.6441C76.731 64.6441 76.03 63.9421 76.03 63.0751C76.029 62.2101 76.731 61.5071 77.598 61.5071ZM77.598 65.5461C78.465 65.5461 79.167 66.2481 79.167 67.1151C79.167 67.9811 78.465 68.6841 77.598 68.6841C76.731 68.6841 76.03 67.9811 76.03 67.1151C76.029 66.2481 76.731 65.5461 77.598 65.5461ZM77.598 69.4271C78.465 69.4271 79.167 70.1281 79.167 70.9951C79.167 71.8601 78.465 72.5641 77.598 72.5641C76.731 72.5641 76.03 71.8601 76.03 70.9951C76.029 70.1281 76.731 69.4271 77.598 69.4271ZM77.598 73.4121C78.465 73.4121 79.167 74.1141 79.167 74.9811C79.167 75.8461 78.465 76.5491 77.598 76.5491C76.731 76.5491 76.03 75.8451 76.03 74.9811C76.029 74.1141 76.731 73.4121 77.598 73.4121ZM73.559 61.5071C74.426 61.5071 75.127 62.2101 75.127 63.0751C75.127 63.9421 74.426 64.6441 73.559 64.6441C72.692 64.6441 71.99 63.9421 71.99 63.0751C71.99 62.2101 72.691 61.5071 73.559 61.5071ZM65.057 61.2951C65.922 61.2951 66.626 61.9981 66.626 62.8631C66.626 63.7301 65.922 64.4321 65.057 64.4321C64.19 64.4321 63.486 63.7291 63.486 62.8631C63.486 61.9981 64.189 61.2951 65.057 61.2951ZM65.057 65.3331C65.922 65.3331 66.626 66.0361 66.626 66.9031C66.626 67.7691 65.922 68.4731 65.057 68.4731C64.19 68.4731 63.486 67.7691 63.486 66.9031C63.486 66.0361 64.189 65.3331 65.057 65.3331ZM61.018 57.2551C61.883 57.2551 62.586 57.9581 62.586 58.8251C62.586 59.6911 61.882 60.3931 61.018 60.3931C60.151 60.3931 59.449 59.6901 59.449 58.8251C59.449 57.9581 60.15 57.2551 61.018 57.2551ZM61.018 61.2951C61.883 61.2951 62.586 61.9981 62.586 62.8631C62.586 63.7301 61.882 64.4321 61.018 64.4321C60.151 64.4321 59.449 63.7291 59.449 62.8631C59.449 61.9981 60.15 61.2951 61.018 61.2951ZM61.018 65.3331C61.883 65.3331 62.586 66.0361 62.586 66.9031C62.586 67.7691 61.882 68.4731 61.018 68.4731C60.151 68.4731 59.449 67.7691 59.449 66.9031C59.449 66.0361 60.15 65.3331 61.018 65.3331ZM61.018 69.3731C61.883 69.3731 62.586 70.0771 62.586 70.9421C62.586 71.8091 61.882 72.5101 61.018 72.5101C60.151 72.5101 59.449 71.8091 59.449 70.9421C59.449 70.0761 60.15 69.3731 61.018 69.3731ZM56.764 61.2951C57.631 61.2951 58.333 61.9981 58.333 62.8631C58.333 63.7301 57.631 64.4321 56.764 64.4321C55.897 64.4321 55.196 63.7291 55.196 62.8631C55.196 61.9981 55.897 61.2951 56.764 61.2951ZM56.764 65.3331C57.631 65.3331 58.333 66.0361 58.333 66.9031C58.333 67.7691 57.631 68.4731 56.764 68.4731C55.897 68.4731 55.196 67.7691 55.196 66.9031C55.196 66.0361 55.897 65.3331 56.764 65.3331ZM56.764 69.3731C57.631 69.3731 58.333 70.0771 58.333 70.9421C58.333 71.8091 57.631 72.5101 56.764 72.5101C55.897 72.5101 55.196 71.8091 55.196 70.9421C55.196 70.0761 55.897 69.3731 56.764 69.3731ZM56.764 73.4121C57.631 73.4121 58.333 74.1141 58.333 74.9811C58.333 75.8461 57.631 76.5491 56.764 76.5491C55.897 76.5491 55.196 75.8451 55.196 74.9811C55.196 74.1141 55.897 73.4121 56.764 73.4121ZM52.3 57.2551C53.167 57.2551 53.871 57.9581 53.871 58.8251C53.871 59.6911 53.167 60.3931 52.3 60.3931C51.435 60.3931 50.731 59.6901 50.731 58.8251C50.731 57.9581 51.435 57.2551 52.3 57.2551ZM52.3 61.2951C53.167 61.2951 53.871 61.9981 53.871 62.8631C53.871 63.7301 53.167 64.4321 52.3 64.4321C51.435 64.4321 50.731 63.7291 50.731 62.8631C50.731 61.9981 51.435 61.2951 52.3 61.2951ZM52.3 65.3331C53.167 65.3331 53.871 66.0361 53.871 66.9031C53.871 67.7691 53.167 68.4731 52.3 68.4731C51.435 68.4731 50.731 67.7691 50.731 66.9031C50.731 66.0361 51.435 65.3331 52.3 65.3331ZM52.3 69.3731C53.167 69.3731 53.871 70.0771 53.871 70.9421C53.871 71.8091 53.167 72.5101 52.3 72.5101C51.435 72.5101 50.731 71.8091 50.731 70.9421C50.731 70.0761 51.435 69.3731 52.3 69.3731ZM48.263 61.2951C49.128 61.2951 49.832 61.9981 49.832 62.8631C49.832 63.7301 49.128 64.4321 48.263 64.4321C47.396 64.4321 46.694 63.7291 46.694 62.8631C46.694 61.9981 47.396 61.2951 48.263 61.2951ZM48.263 65.3331C49.128 65.3331 49.832 66.0361 49.832 66.9031C49.832 67.7691 49.128 68.4731 48.263 68.4731C47.396 68.4731 46.694 67.7691 46.694 66.9031C46.694 66.0361 47.396 65.3331 48.263 65.3331Z" fill="#363636"/>
</svg>
