<svg width="160" height="160" viewBox="0 0 160 160" fill="none" xmlns="http://www.w3.org/2000/svg">
<rect width="160" height="160" fill="#E5E5E5"/>
<rect width="1440" height="3131" transform="translate(-1140 -820)" fill="white"/>
<rect width="160" height="160" fill="#FFE17F"/>
<path d="M26.0523 46.2579C20.5074 46.7452 15.8384 47.8507 14.5753 48.9303C13.8526 49.5465 13.8526 49.5465 14.3429 50.0865C14.9874 50.8062 18.0563 51.7315 21.5905 52.3228C25.5885 52.9908 34.1003 53.0162 35.3136 52.3741C36.5255 51.7061 36.9376 50.9605 36.9376 49.3927C36.9376 47.774 36.3185 46.9767 34.7198 46.5402C33.274 46.1543 28.9415 46 26.0523 46.2579Z" fill="#363636"/>
<path d="M39.7745 46.4883C39.6451 46.7715 39.5162 48.5962 39.5162 50.6001C39.5162 54.6611 39.6715 54.3784 37.3243 54.5332L36.2935 54.6103L36.0352 59.6986L34.8487 59.9818C32.2696 60.6498 30.8497 62.577 31.0572 65.2762C31.1851 67.2034 32.088 68.617 33.6358 69.3631C34.7447 69.8763 35.1055 69.9012 44.8819 69.9012C50.4268 69.9012 55.0191 69.9798 55.0704 70.0819C55.1212 70.2103 53.961 79.4891 52.4908 90.7206C51.046 101.951 49.8077 111.718 49.7823 112.387C49.731 114.004 50.6085 115.008 52.13 115.008C53.3673 115.008 54.1417 114.366 54.4513 113.106C54.5807 112.593 55.9469 102.773 57.4694 91.285C58.9914 79.8221 60.3322 70.4163 60.4098 70.4163C60.5128 70.4163 61.4928 71.8294 62.6022 73.552C65.5421 78.178 65.0011 77.8689 70.2375 77.8689H74.5959V83.4987L69.4631 83.5758C64.7429 83.6529 64.2531 83.7028 63.5818 84.191C62.009 85.3482 61.9568 85.606 61.9568 95.1676C61.9568 104.702 61.9832 104.96 63.4793 106.217L64.3304 106.913H95.6956L96.5462 106.217C98.0423 104.96 98.0667 104.702 98.0667 95.1676C98.0667 85.6061 98.0159 85.3483 96.4437 84.191C95.7728 83.7027 95.2826 83.6529 90.5619 83.5758L85.4301 83.4987V77.8689H89.7895C95.0239 77.8689 94.4829 78.178 97.4233 73.552C98.5337 71.8293 99.5131 70.4163 99.6167 70.4163C99.6929 70.4163 101.036 79.8221 102.556 91.285C104.079 102.773 105.446 112.593 105.575 113.106C105.884 114.366 106.657 115.008 107.896 115.008C109.418 115.008 110.295 114.004 110.243 112.387C110.217 111.718 108.979 101.951 107.534 90.7206C106.065 79.4892 104.903 70.2103 104.956 70.0819C105.006 69.9798 109.597 69.9012 115.145 69.9012C124.921 69.9012 125.281 69.8763 126.389 69.3631C127.937 68.617 128.839 67.2034 128.968 65.2762C129.175 62.577 127.757 60.6497 125.177 59.9818L123.99 59.6986L123.734 54.6103L122.702 54.5332C120.355 54.3784 120.508 54.6611 120.508 50.6001C120.508 48.5962 120.38 46.7715 120.252 46.4883C120.045 46.1284 119.709 46 118.884 46C118.265 46 117.646 46.1284 117.464 46.3086C117.258 46.5142 117.155 47.7739 117.155 50.2407C117.155 52.708 117.052 53.9678 116.845 54.1728C116.666 54.3525 115.944 54.4809 115.196 54.4809C113.57 54.4809 113.544 54.5331 113.544 57.5913V59.8784H46.4806V57.5913C46.4806 54.5332 46.4557 54.4809 44.8307 54.4809C44.0822 54.4809 43.3605 54.3525 43.1803 54.1728C42.9728 53.9677 42.8702 52.708 42.8702 50.2407C42.8702 47.7739 42.7672 46.5141 42.5606 46.3086C42.3799 46.1284 41.7603 46 41.1417 46C40.317 46 39.9815 46.1285 39.7745 46.4883ZM82.6173 86.6084C85.506 87.5068 88.0089 90.001 88.7833 92.7764C89.2218 94.3194 89.0929 96.9922 88.4991 98.5596C87.8028 100.435 85.8145 102.569 83.9337 103.495C82.6437 104.137 82.1798 104.214 80.0128 104.214C77.8463 104.214 77.3819 104.137 76.0924 103.495C74.2081 102.569 72.2233 100.435 71.5265 98.5596C70.9337 96.9922 70.8038 94.3194 71.2428 92.7764C71.9908 90.0528 74.4923 87.5069 77.3043 86.6084C79.3165 85.9659 80.6046 85.9659 82.6173 86.6084Z" fill="#363636"/>
<path d="M77.794 90.4375C75.7574 91.3633 74.2872 94.0869 74.7252 96.168C75.4991 99.8448 79.5484 101.721 82.7208 99.8701C84.7062 98.7119 85.712 96.3232 85.172 94.0869C84.6036 91.6963 82.4376 89.9492 80.0128 89.9492C79.3673 89.9493 78.3873 90.1807 77.794 90.4375Z" fill="#363636"/>
<path d="M50.0919 46.1543C46.1715 46.8223 45.5787 47.2852 45.5787 49.5981C45.5787 51.4228 46.0426 52.0141 47.8468 52.5537C49.3966 53.0161 55.0192 53.0679 58.3468 52.6821C65.2076 51.8598 69.6686 50.1377 68.0455 48.9301C66.7804 48.0302 63.1432 47.0536 58.9913 46.54C56.5157 46.232 50.9952 46 50.0919 46.1543Z" fill="#363636"/>
<path d="M103.484 46.2579C97.1652 46.8482 91.6202 48.339 91.6202 49.4439C91.6202 51.1661 99.461 52.9136 107.25 52.9395C113.054 52.9395 114.446 52.2974 114.446 49.5982C114.446 47.774 113.827 46.9766 112.073 46.5142C110.424 46.1026 106.398 46 103.484 46.2579Z" fill="#363636"/>
<path d="M126.776 46.2833C124.996 46.5143 123.758 47.0538 123.346 47.774C122.959 48.5445 123.036 50.6778 123.5 51.3458C124.428 52.6568 125.152 52.8111 130.568 52.8111C134.23 52.8111 136.37 52.6822 138.435 52.3228C141.969 51.7315 145.038 50.8062 145.683 50.0865C146.173 49.5465 146.173 49.5465 145.45 48.9303C144.109 47.7994 139.492 46.7452 133.534 46.2579C130.053 45.9747 129.046 45.9747 126.776 46.2833Z" fill="#363636"/>
</svg>
