<svg width="160" height="160" viewBox="0 0 160 160" fill="none" xmlns="http://www.w3.org/2000/svg">
<rect width="160" height="160" fill="#E5E5E5"/>
<rect width="1440" height="3131" transform="translate(-340 -820)" fill="white"/>
<rect width="160" height="160" fill="#FFE17F"/>
<path d="M119.821 48.011H40.33C38.569 48.011 37.142 49.438 37.142 51.199V97.612C37.142 99.375 38.569 100.801 40.33 100.801H119.822C121.584 100.801 123.011 99.374 123.011 97.612V51.199C123.011 49.438 121.583 48.011 119.821 48.011ZM45.392 81.236H45.166C43.404 81.236 41.977 79.807 41.977 78.047V70.764C41.977 69.003 43.404 67.576 45.166 67.576H45.392V81.236ZM106.623 96.408H50.341V52.402H106.623V96.408ZM115.4 78.552C113.111 78.552 111.254 76.697 111.254 74.405C111.254 72.113 113.11 70.258 115.4 70.258C117.691 70.258 119.548 72.113 119.548 74.405C119.548 76.697 117.691 78.552 115.4 78.552Z" fill="#363636"/>
<path d="M91.654 44H68.497V46.758H91.654V44Z" fill="#363636"/>
<path d="M83.608 108.861V105.888H91.654V103.13H68.498V105.888H76.543V141.134C74.404 142.072 72.908 144.206 72.908 146.693V161H87.243V146.693C87.243 144.207 85.748 142.072 83.607 141.136V113.146H88.403L93.454 114.359V107.648L88.403 108.861H83.608Z" fill="#363636"/>
</svg>
