<svg width="160" height="160" viewBox="0 0 160 160" fill="none" xmlns="http://www.w3.org/2000/svg">
<rect width="160" height="160" fill="#E5E5E5"/>
<rect width="1440" height="3131" transform="translate(-940 -820)" fill="white"/>
<rect width="160" height="160" fill="#FFE17F"/>
<path d="M106.494 64.197H104.979V59.557C104.979 54.505 100.892 50.371 95.897 50.371H61.082C56.086 50.372 52 54.505 52 59.557V102.425C52 107.477 56.087 111.61 61.083 111.61H95.898C100.893 111.61 104.98 107.477 104.98 102.425V99.01H106.495C106.91 99.01 107.252 98.666 107.252 98.246V84.467C107.252 84.046 106.91 83.701 106.495 83.701H104.98V74.913H106.495C107.327 74.913 108.009 74.225 108.009 73.382V65.728C108.008 64.886 107.326 64.197 106.494 64.197ZM86.082 61.088C89.008 61.088 91.381 63.486 91.381 66.446C91.381 69.406 89.008 71.804 86.082 71.804C83.156 71.804 80.784 69.406 80.784 66.446C80.784 63.486 83.156 61.088 86.082 61.088ZM70.945 61.088C73.87 61.088 76.243 63.486 76.243 66.446C76.243 69.406 73.87 71.804 70.945 71.804C68.019 71.804 65.647 69.406 65.647 66.446C65.647 63.486 68.019 61.088 70.945 61.088ZM57.297 81.397C57.297 78.438 59.668 76.039 62.595 76.039C65.521 76.039 67.893 78.438 67.893 81.397C67.893 84.356 65.52 86.755 62.595 86.755C59.668 86.756 57.297 84.356 57.297 81.397ZM70.945 100.894C68.019 100.894 65.647 98.496 65.647 95.536C65.647 92.576 68.019 90.178 70.945 90.178C73.87 90.178 76.243 92.576 76.243 95.536C76.243 98.496 73.87 100.894 70.945 100.894ZM72.435 80.991C72.435 77.609 75.146 74.867 78.49 74.867C81.834 74.867 84.545 77.609 84.545 80.991C84.545 84.373 81.834 87.115 78.49 87.115C75.146 87.114 72.435 84.373 72.435 80.991ZM86.082 100.894C83.156 100.894 80.784 98.496 80.784 95.536C80.784 92.576 83.156 90.178 86.082 90.178C89.008 90.178 91.381 92.576 91.381 95.536C91.381 98.496 89.008 100.894 86.082 100.894ZM94.384 86.756C91.457 86.756 89.086 84.357 89.086 81.398C89.086 78.439 91.457 76.04 94.384 76.04C97.31 76.04 99.682 78.439 99.682 81.398C99.682 84.356 97.31 86.756 94.384 86.756Z" fill="#363636"/>
<path d="M61.646 47.31H95.333C96.176 47.31 96.765 46.629 96.639 45.796L95.023 35.028C95.023 35.028 95.023 35.027 95.021 35.026C94.771 33.362 93.189 32 91.506 32H65.474C63.788 32 62.206 33.362 61.957 35.028L60.342 45.795C60.217 46.628 60.803 47.31 61.646 47.31Z" fill="#363636"/>
<path d="M95.333 114.671H61.646C60.803 114.671 60.217 115.354 60.342 116.187L61.957 126.954C62.207 128.62 63.789 129.982 65.473 129.982H91.505C93.189 129.982 94.771 128.62 95.022 126.956V126.954L96.637 116.187C96.765 115.354 96.176 114.671 95.333 114.671Z" fill="#363636"/>
</svg>
